<svg width="85" height="14" viewBox="0 0 85 14" fill="none" xmlns="http://www.w3.org/2000/svg">
<path d="M7.08334 0L8.74873 4.73471L13.82 4.83684L9.778 7.86517L11.2468 12.663L7.08334 9.79991L2.91986 12.663L4.38868 7.86517L0.346684 4.83684L5.41795 4.73471L7.08334 0Z" fill="#FDB44B"/>
<path d="M24.7916 0L26.457 4.73471L31.5282 4.83684L27.4863 7.86517L28.9551 12.663L24.7916 9.79991L20.6281 12.663L22.0969 7.86517L18.0549 4.83684L23.1262 4.73471L24.7916 0Z" fill="#FDB44B"/>
<path d="M42.5003 0L44.1657 4.73471L49.237 4.83684L45.195 7.86517L46.6638 12.663L42.5003 9.79991L38.3368 12.663L39.8057 7.86517L35.7637 4.83684L40.8349 4.73471L42.5003 0Z" fill="#FDB44B"/>
<path d="M60.2083 0L61.8737 4.73471L66.945 4.83684L62.903 7.86517L64.3718 12.663L60.2083 9.79991L56.0449 12.663L57.5137 7.86517L53.4717 4.83684L58.5429 4.73471L60.2083 0Z" fill="#FDB44B"/>
<path d="M77.9166 0L79.582 4.73471L84.6532 4.83684L80.6113 7.86517L82.0801 12.663L77.9166 9.79991L73.7531 12.663L75.2219 7.86517L71.1799 4.83684L76.2512 4.73471L77.9166 0Z" fill="#FDB44B"/>
</svg>
